<?xml version="1.0" encoding="UTF-8"?>
<!-- Generator: visioncortex VTracer 0.6.3 -->
<svg version="1.1" xmlns="http://www.w3.org/2000/svg" width="794" height="794">
<path d="M0,0 L38,0 L63,2 L91,6 L122,13 L148,21 L176,32 L201,44 L221,55 L240,67 L259,81 L275,94 L287,105 L297,114 L306,123 L313,131 L322,141 L335,158 L348,176 L363,201 L375,224 L384,244 L393,268 L401,295 L407,322 L411,350 L413,374 L413,413 L410,447 L406,471 L400,497 L393,520 L382,549 L366,582 L353,604 L345,616 L332,634 L321,647 L312,658 L301,669 L296,674 L281,689 L270,698 L255,710 L238,722 L217,735 L193,748 L166,760 L138,770 L117,776 L89,782 L61,786 L32,788 L7,788 L-23,786 L-56,781 L-86,774 L-111,766 L-132,758 L-152,749 L-177,736 L-198,723 L-215,711 L-229,700 L-243,688 L-256,676 L-271,661 L-278,653 L-292,636 L-306,617 L-318,598 L-330,577 L-343,550 L-353,524 L-360,502 L-367,474 L-372,443 L-374,423 L-375,390 L-374,365 L-371,338 L-366,310 L-359,282 L-348,250 L-337,225 L-326,203 L-314,183 L-301,164 L-289,148 L-276,133 L-267,123 L-245,101 L-234,92 L-221,81 L-203,68 L-184,56 L-161,43 L-133,30 L-109,21 L-80,12 L-47,5 L-14,1 Z M1,33 L-30,36 L-54,40 L-82,47 L-109,56 L-135,67 L-160,80 L-184,95 L-200,107 L-210,115 L-224,127 L-231,134 L-239,141 L-248,151 L-258,162 L-269,176 L-281,193 L-293,212 L-306,236 L-316,259 L-325,284 L-332,309 L-337,334 L-340,354 L-341,365 L-342,398 L-341,423 L-337,454 L-331,483 L-323,510 L-315,531 L-304,555 L-294,574 L-282,593 L-270,610 L-262,620 L-251,633 L-240,645 L-224,661 L-213,670 L-200,681 L-180,695 L-159,708 L-134,721 L-108,732 L-77,742 L-51,748 L-27,752 L-6,754 L44,754 L65,752 L89,748 L111,743 L135,736 L156,728 L176,719 L201,706 L223,692 L242,678 L256,666 L266,657 L277,647 L284,639 L296,626 L307,612 L320,594 L335,569 L347,546 L357,522 L368,489 L375,458 L378,438 L380,416 L380,371 L377,340 L370,305 L362,278 L354,257 L345,237 L333,214 L318,190 L305,173 L297,163 L285,149 L261,125 L250,116 L238,106 L221,94 L200,81 L182,71 L153,58 L134,51 L106,43 L82,38 L52,34 L38,33 Z " fill="#FA5B5A" transform="translate(378,3)"/>
<path d="M0,0 L10,2 L15,6 L18,14 L18,385 L15,401 L10,413 L2,424 L-3,429 L-11,436 L-27,444 L-45,448 L-59,450 L-74,450 L-88,447 L-100,441 L-110,432 L-117,424 L-123,411 L-126,397 L-125,383 L-121,370 L-114,358 L-105,349 L-92,341 L-76,335 L-51,329 L-24,323 L-16,318 L-12,311 L-11,307 L-11,131 L-14,125 L-19,123 L-26,123 L-140,146 L-218,162 L-226,165 L-230,170 L-231,173 L-232,425 L-234,443 L-239,459 L-246,471 L-256,482 L-266,489 L-277,494 L-297,499 L-304,500 L-328,500 L-342,496 L-353,490 L-362,482 L-369,471 L-373,462 L-375,453 L-375,434 L-372,423 L-366,411 L-357,401 L-349,395 L-337,389 L-321,384 L-295,378 L-276,374 L-267,369 L-262,359 L-261,69 L-258,60 L-252,53 L-245,49 L-196,39 L-108,21 L-7,1 Z " fill="#F35E79" transform="translate(557,138)"/>
<path d="M0,0 L3,2 L6,2 L7,5 L5,6 L6,10 L4,9 L3,11 L10,8 L9,6 L13,6 L14,1 L16,2 L19,1 L21,7 L23,11 L25,20 L28,53 L28,92 L25,126 L21,150 L15,176 L8,199 L-3,228 L-19,261 L-32,283 L-40,295 L-53,313 L-64,326 L-73,337 L-84,348 L-89,353 L-104,368 L-115,377 L-130,389 L-147,401 L-168,414 L-192,427 L-219,439 L-247,449 L-268,455 L-296,461 L-324,465 L-353,467 L-378,467 L-408,465 L-441,460 L-471,453 L-496,445 L-517,437 L-537,428 L-562,415 L-583,402 L-600,390 L-614,379 L-628,367 L-641,355 L-656,340 L-663,332 L-677,315 L-686,303 L-686,298 L-683,295 L-680,294 L-677,291 L-668,287 L-668,281 L-666,281 L-664,285 L-661,284 L-656,286 L-647,298 L-635,312 L-624,324 L-609,339 L-598,348 L-585,359 L-565,373 L-544,386 L-519,399 L-493,410 L-462,420 L-436,426 L-412,430 L-391,432 L-341,432 L-320,430 L-296,426 L-274,421 L-250,414 L-229,406 L-209,397 L-184,384 L-162,370 L-143,356 L-129,344 L-119,335 L-109,326 L-102,318 L-90,305 L-79,291 L-66,273 L-51,248 L-39,225 L-29,201 L-18,168 L-11,137 L-8,117 L-6,95 L-6,50 L-9,19 L-11,5 L-8,1 L-3,2 L-4,4 L-7,5 L-3,7 L-3,5 L0,5 L0,7 L2,7 L0,4 Z " fill="#29C0FA" transform="translate(763,324)"/>
<path d="M0,0 L2,4 L5,13 L5,217 L2,233 L-3,245 L-11,256 L-16,261 L-24,268 L-40,276 L-58,280 L-72,282 L-87,282 L-101,279 L-113,273 L-123,264 L-130,256 L-136,243 L-139,229 L-138,215 L-134,202 L-127,190 L-118,181 L-105,173 L-89,167 L-64,161 L-37,155 L-29,150 L-25,143 L-24,139 L-23,24 L-21,18 L-20,11 L-17,6 L-14,7 L-13,4 L-11,8 L-9,4 L-3,2 Z " fill="#4CA0F8" transform="translate(570,306)"/>
<path d="M0,0 L2,0 L3,6 L4,28 L4,189 L2,207 L-3,223 L-10,235 L-20,246 L-30,253 L-41,258 L-61,263 L-68,264 L-92,264 L-106,260 L-117,254 L-126,246 L-133,235 L-137,226 L-139,217 L-139,198 L-136,187 L-130,175 L-121,165 L-113,159 L-101,153 L-85,148 L-59,142 L-40,138 L-31,133 L-26,123 L-25,3 L-23,3 L-22,9 L-20,7 L-17,7 L-16,2 L-9,1 L-6,1 L-4,3 L-1,3 Z " fill="#7D6AFE" transform="translate(321,374)"/>
<path d="M0,0 L3,3 L5,9 L5,176 L3,174 L0,164 L-4,167 L-9,167 L-9,169 L-7,170 L-12,172 L-13,168 L-14,170 L-17,170 L-20,177 L-21,182 L-22,187 L-23,187 L-24,126 L-27,120 L-32,118 L-39,118 L-138,138 L-143,138 L-142,136 L-140,136 L-139,133 L-138,121 L-136,121 L-135,118 L-133,118 L-134,115 L-133,111 L-131,111 L-131,116 L-129,117 L-128,112 L-127,114 L-125,114 L-124,108 L-124,103 L-121,98 L-119,91 L-114,90 L-110,86 L-113,85 L-110,83 L-109,82 L-103,80 L-103,82 L-101,83 L-100,84 L-99,82 L-96,82 L-95,75 L-93,72 L-88,74 L-85,75 L-86,72 L-79,68 L-77,67 L-76,65 L-73,67 L-75,63 L-75,60 L-73,58 L-74,55 L-76,55 L-77,52 L-75,49 L-71,49 L-70,46 L-65,45 L-62,46 L-57,44 L-56,41 L-54,43 L-52,39 L-47,39 L-45,41 L-43,38 L-44,36 L-42,36 L-42,34 L-44,33 L-41,32 L-41,30 L-37,29 L-34,27 L-36,26 L-36,24 L-34,24 L-33,21 L-34,16 L-31,15 L-33,13 L-32,10 L-30,10 L-30,8 L-44,8 L-44,7 L-31,6 L-31,4 L-22,3 L-17,1 L-6,1 L0,5 L-2,1 Z " fill="#E1658C" transform="translate(570,143)"/>
<path d="M0,0 L5,2 L11,2 L27,11 L45,23 L64,37 L77,48 L87,57 L99,68 L107,76 L114,84 L123,94 L136,111 L149,129 L164,154 L176,177 L185,197 L194,221 L202,248 L208,275 L209,285 L206,283 L205,277 L200,276 L199,280 L196,281 L197,283 L193,285 L189,285 L190,282 L191,283 L192,281 L190,280 L192,276 L188,277 L187,275 L188,281 L186,281 L186,279 L183,279 L183,281 L178,279 L182,277 L178,276 L175,279 L171,263 L164,237 L154,210 L145,190 L133,167 L118,143 L105,126 L97,116 L85,102 L62,79 L51,70 L39,60 L22,48 L1,35 L-17,25 L-35,17 L-33,16 L-33,13 L-31,13 L-29,18 L-25,17 L-25,14 L-22,15 L-22,19 L-16,16 L-14,16 L-14,13 L-9,12 L-10,14 L-8,15 L-7,12 L-9,11 L-9,9 L-6,7 L-7,5 L-2,2 L-2,6 L0,7 L1,3 L-1,1 Z M-21,12 Z M-22,13 Z " fill="#E25F87" transform="translate(577,50)"/>
<path d="M0,0 L4,0 L0,17 L-5,42 L-8,62 L-9,73 L-10,106 L-9,131 L-5,162 L1,191 L9,218 L17,239 L28,263 L38,282 L50,301 L59,314 L57,315 L53,314 L52,316 L50,310 L48,310 L49,317 L42,320 L37,322 L37,324 L33,325 L34,327 L30,327 L29,330 L21,319 L6,294 L-8,267 L-16,248 L-25,223 L-32,199 L-38,171 L-42,142 L-43,131 L-44,98 L-43,73 L-40,46 L-35,18 L-33,9 L-31,9 L-30,6 L-30,10 L-29,8 L-26,8 L-26,6 L-24,5 L-24,1 L-22,1 L-22,5 L-20,4 L-21,1 L-17,3 L-15,10 L-12,8 L-12,12 L-13,13 L-11,14 L-10,11 L-7,9 L-3,10 L-2,9 L1,3 Z " fill="#D64CBC" transform="translate(47,295)"/>
<path d="M0,0 L2,0 L3,6 L4,28 L4,189 L3,189 L2,127 L1,134 L-3,132 L-4,135 L-7,134 L-7,136 L-5,136 L-5,138 L-11,139 L-13,144 L-17,143 L-16,147 L-17,150 L-18,154 L-20,157 L-18,158 L-21,158 L-21,160 L-23,160 L-23,155 L-24,158 L-26,158 L-26,156 L-28,156 L-26,164 L-31,166 L-31,164 L-35,165 L-35,163 L-37,163 L-37,165 L-39,165 L-39,163 L-44,162 L-41,157 L-39,157 L-38,151 L-40,151 L-40,153 L-42,153 L-43,156 L-45,156 L-45,159 L-50,160 L-51,166 L-52,164 L-56,164 L-57,173 L-59,173 L-60,175 L-62,174 L-64,175 L-65,178 L-68,180 L-69,184 L-70,184 L-70,186 L-72,186 L-73,188 L-73,186 L-75,186 L-76,189 L-79,186 L-79,189 L-83,190 L-84,194 L-89,194 L-90,199 L-93,202 L-98,207 L-99,203 L-102,208 L-104,208 L-104,212 L-106,212 L-107,214 L-108,217 L-112,217 L-117,218 L-115,220 L-113,219 L-114,222 L-117,224 L-117,229 L-124,230 L-128,231 L-128,227 L-133,226 L-136,224 L-137,226 L-139,217 L-139,198 L-136,187 L-130,175 L-121,165 L-113,159 L-101,153 L-85,148 L-59,142 L-40,138 L-31,133 L-26,123 L-25,3 L-23,3 L-22,9 L-20,7 L-17,7 L-16,2 L-9,1 L-6,1 L-4,3 L-1,3 Z M-37,153 Z M-38,154 Z M-29,159 L-28,161 Z " fill="#915EF8" transform="translate(321,374)"/>
<path d="M0,0 L2,0 L4,4 L7,3 L12,5 L21,17 L33,31 L44,43 L59,58 L70,67 L83,78 L103,92 L124,105 L149,118 L175,129 L196,136 L194,137 L195,142 L190,145 L189,149 L187,148 L186,149 L182,149 L182,151 L186,151 L186,153 L184,153 L184,155 L180,154 L180,156 L177,156 L179,157 L180,161 L183,162 L180,163 L181,166 L174,165 L146,154 L117,140 L96,128 L75,114 L63,105 L49,94 L37,83 L29,76 L12,59 L5,51 L-9,34 L-18,22 L-18,17 L-15,14 L-12,13 L-9,10 L0,6 Z " fill="#676FFD" transform="translate(95,605)"/>
<path d="M0,0 L3,0 L4,5 L6,4 L8,6 L10,13 L8,13 L7,15 L5,14 L6,17 L9,18 L14,16 L17,18 L21,20 L26,17 L26,19 L28,20 L17,30 L9,37 L-4,49 L-11,57 L-22,69 L-33,83 L-45,100 L-57,119 L-70,143 L-80,166 L-89,191 L-93,200 L-96,199 L-94,203 L-98,210 L-103,209 L-107,213 L-110,212 L-108,208 L-111,210 L-114,204 L-115,201 L-115,204 L-118,204 L-118,200 L-120,200 L-119,205 L-122,205 L-122,207 L-126,209 L-128,208 L-127,200 L-119,174 L-109,147 L-93,114 L-81,93 L-66,71 L-54,55 L-41,40 L-32,30 L-10,8 Z M2,6 L3,8 L4,6 Z M8,3 Z " fill="#F6556D" transform="translate(143,96)"/>
<path d="M0,0 L3,2 L6,2 L7,5 L5,6 L6,10 L4,9 L3,11 L10,8 L9,6 L13,6 L14,1 L16,2 L19,1 L21,7 L23,11 L25,20 L28,53 L28,92 L25,126 L21,150 L15,176 L8,199 L6,204 L5,204 L5,194 L8,193 L5,190 L5,192 L3,192 L2,189 L-7,188 L-6,185 L-4,185 L-4,184 L-12,182 L-13,182 L-12,185 L-16,185 L-18,186 L-21,185 L-22,188 L-23,184 L-16,160 L-10,131 L-7,107 L-6,95 L-6,50 L-9,19 L-11,5 L-8,1 L-3,2 L-4,4 L-7,5 L-3,7 L-3,5 L0,5 L0,7 L2,7 L0,4 Z " fill="#65AADE" transform="translate(763,324)"/>
<path d="M0,0 L9,1 L33,7 L62,12 L83,14 L133,14 L154,12 L172,10 L169,12 L167,12 L167,16 L165,16 L165,18 L167,18 L167,20 L165,20 L165,25 L165,28 L167,29 L170,33 L168,33 L167,35 L167,32 L164,32 L166,39 L163,43 L172,43 L172,44 L139,48 L121,49 L96,49 L66,47 L33,42 L3,35 L-13,30 L-14,26 L-14,25 L-16,23 L-17,19 L-13,16 L-13,18 L-10,18 L-10,16 L-8,16 L-8,14 L-12,14 L-12,12 L-8,12 L-6,8 L-5,12 L-4,7 L0,4 L-1,2 Z " fill="#4292FD" transform="translate(289,742)"/>
<path d="M0,0 L2,4 L5,13 L5,217 L3,213 L2,184 L0,187 L-4,189 L-4,191 L-2,191 L-3,194 L-4,192 L-7,192 L-6,186 L-3,183 L-6,181 L-8,174 L-7,170 L0,170 L-1,163 L-1,160 L-1,158 L-3,158 L-6,154 L-9,154 L-12,155 L-13,158 L-18,163 L-20,164 L-20,159 L-18,154 L-21,154 L-22,156 L-24,156 L-23,159 L-28,161 L-28,165 L-31,168 L-33,168 L-34,164 L-37,165 L-37,168 L-39,168 L-39,166 L-44,167 L-46,169 L-48,168 L-50,172 L-53,175 L-56,174 L-54,172 L-56,169 L-58,172 L-62,173 L-66,171 L-73,173 L-79,175 L-89,177 L-98,180 L-107,185 L-116,192 L-115,196 L-117,196 L-117,194 L-121,198 L-125,202 L-126,208 L-129,209 L-127,211 L-129,212 L-132,221 L-135,221 L-134,238 L-132,250 L-135,246 L-138,236 L-139,222 L-136,207 L-129,193 L-120,183 L-112,177 L-98,170 L-74,163 L-40,156 L-30,151 L-26,146 L-24,139 L-23,24 L-21,18 L-20,11 L-17,6 L-14,7 L-13,4 L-11,8 L-9,4 L-3,2 Z M-3,155 Z M-33,162 Z M-3,180 Z " fill="#5D9CE3" transform="translate(570,306)"/>
<path d="M0,0 L4,1 L1,2 L0,4 L3,3 L3,6 L6,7 L6,9 L9,10 L9,7 L12,5 L16,6 L21,7 L21,5 L18,6 L18,3 L21,3 L26,8 L27,7 L29,9 L35,34 L41,54 L49,75 L60,99 L70,118 L82,137 L91,150 L89,151 L85,150 L84,152 L82,146 L80,146 L81,153 L74,156 L69,158 L69,160 L65,161 L66,163 L62,163 L61,166 L53,155 L38,130 L24,103 L16,84 L7,59 L0,35 L-3,22 L-3,13 L0,8 L1,5 L-2,6 L-1,1 Z " fill="#AE4CE9" transform="translate(15,459)"/>
<path d="M0,0 L5,1 L6,5 L8,5 L8,2 L14,1 L15,3 L17,3 L29,27 L39,52 L48,79 L55,107 L58,123 L57,127 L55,123 L53,118 L50,119 L49,118 L48,122 L45,123 L46,125 L42,127 L38,127 L39,124 L40,125 L41,123 L39,122 L41,118 L37,119 L36,117 L37,123 L35,123 L35,121 L32,121 L32,123 L27,121 L31,119 L27,118 L24,121 L20,105 L13,79 L3,52 L-6,32 L-14,16 L-14,11 L-12,11 L-12,8 L-8,8 L-6,7 L-6,10 L-4,6 L-3,9 L-1,5 Z M5,0 L8,1 Z " fill="#AC7EBA" transform="translate(728,208)"/>
<path d="M0,0 L6,4 L8,1 L9,3 L10,12 L10,112 L8,110 L5,100 L1,103 L-4,103 L-4,105 L-2,106 L-7,108 L-8,104 L-9,106 L-12,106 L-15,113 L-16,118 L-17,123 L-18,123 L-19,62 L-22,56 L-27,54 L-34,54 L-118,71 L-121,71 L-120,68 L-115,67 L-114,64 L-112,64 L-111,65 L-111,63 L-107,62 L-105,65 L-97,65 L-95,60 L-94,59 L-88,59 L-81,54 L-81,57 L-76,58 L-75,60 L-74,55 L-69,52 L-69,54 L-66,54 L-67,49 L-62,48 L-60,49 L-59,44 L-55,47 L-55,44 L-51,43 L-44,42 L-44,40 L-47,41 L-47,38 L-43,36 L-41,36 L-40,33 L-36,32 L-32,31 L-32,29 L-30,29 L-30,31 L-28,30 L-27,28 L-25,28 L-24,24 L-18,22 L-20,14 L-15,11 L-11,10 L-9,9 L-7,6 L-7,9 L-4,9 L-5,5 L0,4 Z M-43,35 Z " fill="#D16D9A" transform="translate(565,207)"/>
<path d="M0,0 L2,0 L4,4 L7,3 L12,5 L21,17 L33,31 L44,43 L59,58 L70,67 L83,78 L86,81 L80,85 L75,87 L72,88 L70,94 L69,95 L71,96 L73,101 L69,103 L69,105 L71,105 L71,110 L67,108 L54,98 L40,86 L27,74 L12,59 L5,51 L-9,34 L-18,22 L-18,17 L-15,14 L-12,13 L-9,10 L0,6 Z " fill="#8657FC" transform="translate(95,605)"/>
<path d="M0,0 L4,2 L15,14 L26,27 L41,47 L53,65 L66,87 L65,90 L63,89 L64,87 L60,89 L58,88 L58,91 L56,91 L55,87 L50,86 L50,93 L47,96 L46,93 L44,97 L43,94 L40,96 L40,94 L38,94 L38,97 L36,97 L35,101 L26,85 L16,70 L2,51 L-10,37 L-21,25 L-33,13 L-31,12 L-30,10 L-29,12 L-27,10 L-24,10 L-23,12 L-18,14 L-19,10 L-17,7 L-15,9 L-15,11 L-13,12 L-12,9 L-5,10 L-4,5 L-8,4 Z M55,86 Z M-18,4 L-16,4 L-17,7 Z " fill="#CD69A2" transform="translate(678,122)"/>
<path d="M0,0 L2,2 L0,2 Z M-9,2 L-1,3 L0,5 L3,6 L4,8 L11,7 L11,9 L16,11 L20,9 L24,5 L24,9 L14,28 L4,51 L-5,76 L-9,85 L-12,84 L-10,88 L-14,95 L-19,94 L-23,98 L-26,97 L-24,93 L-27,95 L-30,89 L-31,86 L-31,89 L-34,89 L-34,85 L-36,85 L-35,90 L-38,90 L-38,92 L-42,94 L-44,93 L-43,85 L-35,59 L-25,32 L-12,5 L-9,4 Z M-1,2 Z M15,6 L17,6 L17,10 L15,9 Z " fill="#EA5090" transform="translate(59,211)"/>
<path d="M0,0 L3,1 L10,3 L11,6 L13,7 L10,7 L10,5 L7,8 L17,8 L17,12 L20,9 L22,13 L20,14 L19,27 L9,52 L-5,81 L-18,103 L-26,115 L-27,111 L-26,106 L-22,102 L-19,102 L-19,97 L-21,97 L-23,92 L-27,90 L-27,87 L-29,86 L-28,93 L-31,91 L-35,91 L-36,83 L-33,81 L-35,80 L-38,80 L-44,82 L-42,77 L-30,55 L-20,34 L-10,7 L-8,7 L-7,5 L-3,4 L0,3 Z " fill="#47BDEB" transform="translate(749,504)"/>
<path d="M0,0 L3,2 L6,2 L7,5 L5,6 L6,10 L4,9 L3,11 L10,8 L9,6 L13,6 L14,1 L16,2 L19,1 L21,7 L23,11 L25,20 L28,53 L28,92 L27,92 L26,85 L21,83 L14,84 L6,84 L5,82 L2,81 L2,83 L-3,83 L-3,80 L-5,80 L-6,50 L-9,19 L-11,5 L-8,1 L-3,2 L-4,4 L-7,5 L-3,7 L-3,5 L0,5 L0,7 L2,7 L0,4 Z " fill="#8694CD" transform="translate(763,324)"/>
<path d="M0,0 L2,4 L5,13 L5,125 L4,125 L2,91 L0,90 L0,93 L-6,95 L-9,93 L-10,91 L-12,92 L-12,95 L-15,95 L-16,97 L-18,96 L-18,94 L-20,94 L-20,104 L-22,107 L-23,91 L-23,24 L-21,18 L-20,11 L-17,6 L-14,7 L-13,4 L-11,8 L-9,4 L-3,2 Z " fill="#8298CF" transform="translate(570,306)"/>
<path d="M0,0 L2,0 L3,6 L4,28 L4,80 L3,91 L2,91 L1,84 L-1,83 L-1,80 L-5,82 L-8,84 L-8,82 L-12,82 L-12,84 L-21,85 L-21,88 L-12,87 L-12,90 L-15,92 L-17,91 L-19,93 L-21,92 L-22,108 L-23,108 L-25,101 L-25,3 L-23,3 L-22,9 L-20,7 L-17,7 L-16,2 L-9,1 L-6,1 L-4,3 L-1,3 Z " fill="#B05EDA" transform="translate(321,374)"/>
<path d="M0,0 L10,2 L13,4 L13,8 L15,12 L7,7 L-4,7 L-9,9 L-18,9 L-18,11 L-41,15 L-46,17 L-64,19 L-80,23 L-84,23 L-84,25 L-93,27 L-106,29 L-116,31 L-124,32 L-128,34 L-146,36 L-173,41 L-191,46 L-207,48 L-223,52 L-239,55 L-251,60 L-255,64 L-257,64 L-258,66 L-258,60 L-252,53 L-245,49 L-196,39 L-108,21 L-7,1 Z " fill="#DD5864" transform="translate(557,138)"/>
<path d="M0,0 L1,0 L2,13 L9,15 L8,24 L5,29 L5,33 L9,35 L6,37 L5,45 L8,46 L8,48 L6,48 L6,50 L8,50 L8,53 L11,53 L12,51 L24,48 L23,43 L24,32 L26,29 L28,23 L33,22 L30,29 L29,120 L28,120 L27,92 L25,92 L24,96 L19,95 L16,94 L9,95 L8,99 L2,102 L2,95 L0,95 Z " fill="#DB5AA6" transform="translate(296,282)"/>
<path d="M0,0 L3,0 L3,2 L8,0 L10,7 L10,12 L11,12 L12,36 L12,71 L10,69 L7,59 L3,62 L-2,62 L-2,64 L0,65 L-5,67 L-6,63 L-7,65 L-10,65 L-13,72 L-14,77 L-15,82 L-16,82 L-17,18 L-12,13 L-10,14 L-10,11 L-7,12 L-6,11 L-8,9 L-6,9 L-6,7 L-1,7 L-1,3 L2,3 L2,1 Z " fill="#B979AB" transform="translate(563,248)"/>
<path d="M0,0 L2,4 L5,13 L5,57 L3,59 L1,50 L-1,49 L0,45 L-3,45 L-2,48 L-6,46 L-8,47 L-8,49 L-12,48 L-12,50 L-17,52 L-19,52 L-22,56 L-23,51 L-23,24 L-21,18 L-20,11 L-17,6 L-14,7 L-13,4 L-11,8 L-9,4 L-3,2 Z " fill="#9E8ABE" transform="translate(570,306)"/>
<path d="M0,0 L2,0 L3,6 L3,25 L1,23 L0,29 L1,33 L1,44 L-1,41 L-2,38 L-5,41 L-10,40 L-11,38 L-16,39 L-18,41 L-18,39 L-20,40 L-23,49 L-25,49 L-25,3 L-23,3 L-22,9 L-20,7 L-17,7 L-16,2 L-9,1 L-6,1 L-4,3 L-1,3 Z " fill="#C659C4" transform="translate(321,374)"/>
<path d="M0,0 L4,2 L-30,9 L-34,8 L-33,7 L-21,5 L-20,3 L-12,3 Z " fill="#E76B94" transform="translate(399,285)"/>
</svg>
