<?xml version="1.0" encoding="UTF-8"?>
<!-- Generator: visioncortex VTracer 0.6.3 -->
<svg version="1.1" xmlns="http://www.w3.org/2000/svg" width="1080" height="1080">
<path d="M0,0 L66,0 L99,3 L132,8 L160,14 L190,22 L228,35 L254,46 L283,60 L305,72 L326,85 L348,100 L369,116 L380,125 L394,137 L410,152 L430,172 L437,180 L446,190 L457,204 L471,222 L482,238 L493,255 L507,279 L521,306 L532,330 L543,359 L553,390 L562,426 L568,459 L572,493 L573,507 L573,573 L570,606 L565,639 L559,667 L551,697 L538,735 L527,761 L513,790 L501,812 L488,833 L473,855 L457,876 L448,887 L436,901 L421,917 L401,937 L393,944 L383,953 L369,964 L351,978 L335,989 L318,1000 L294,1014 L267,1028 L243,1039 L214,1050 L183,1060 L147,1069 L114,1075 L80,1079 L66,1080 L0,1080 L-33,1077 L-66,1072 L-94,1066 L-124,1058 L-162,1045 L-188,1034 L-217,1020 L-239,1008 L-260,995 L-282,980 L-303,964 L-314,955 L-328,943 L-344,928 L-364,908 L-371,900 L-380,890 L-391,876 L-405,858 L-416,842 L-427,825 L-441,801 L-455,774 L-466,750 L-477,721 L-487,690 L-496,654 L-502,621 L-506,587 L-507,573 L-507,507 L-504,474 L-499,441 L-493,413 L-485,383 L-472,345 L-461,319 L-447,290 L-435,268 L-422,247 L-407,225 L-391,204 L-382,193 L-370,179 L-355,163 L-335,143 L-327,136 L-317,127 L-303,116 L-285,102 L-269,91 L-252,80 L-228,66 L-201,52 L-177,41 L-148,30 L-117,20 L-81,11 L-48,5 L-14,1 Z M17,193 L-15,196 L-43,201 L-69,208 L-95,217 L-119,228 L-142,240 L-161,252 L-180,266 L-191,275 L-203,286 L-211,293 L-220,302 L-227,310 L-239,324 L-253,343 L-265,362 L-275,380 L-287,405 L-296,429 L-303,452 L-309,479 L-313,510 L-314,524 L-314,557 L-311,589 L-306,617 L-299,643 L-290,669 L-279,693 L-267,716 L-255,735 L-244,750 L-233,764 L-221,777 L-214,785 L-205,794 L-197,801 L-183,813 L-164,827 L-145,839 L-127,849 L-102,861 L-78,870 L-55,877 L-28,883 L3,887 L17,888 L50,888 L82,885 L110,880 L136,873 L162,864 L186,853 L209,841 L228,829 L243,818 L257,807 L269,796 L279,787 L287,779 L294,771 L306,757 L320,738 L332,719 L342,701 L354,676 L363,652 L370,629 L376,602 L380,571 L381,557 L381,524 L378,492 L373,464 L366,438 L357,412 L346,388 L334,365 L322,346 L311,331 L300,317 L288,304 L281,296 L272,287 L264,280 L250,268 L231,254 L212,242 L194,232 L169,220 L145,211 L122,204 L95,198 L64,194 L50,193 Z " fill="#DA3F3F" transform="translate(507,0)"/>
<path d="M0,0 L37,0 L64,3 L89,8 L115,16 L135,24 L152,32 L171,43 L187,54 L200,64 L214,76 L233,95 L242,106 L255,123 L266,140 L279,164 L287,183 L296,210 L302,236 L305,257 L306,269 L306,306 L303,333 L298,358 L290,384 L282,404 L274,421 L263,440 L252,456 L242,469 L230,483 L211,502 L200,511 L183,524 L166,535 L142,548 L123,556 L96,565 L75,570 L49,574 L37,575 L0,575 L-27,572 L-52,567 L-78,559 L-98,551 L-115,543 L-134,532 L-150,521 L-163,511 L-177,499 L-196,480 L-205,469 L-218,452 L-229,435 L-242,411 L-250,392 L-259,365 L-264,344 L-268,318 L-269,306 L-269,269 L-266,242 L-261,217 L-253,191 L-245,171 L-237,154 L-226,135 L-215,119 L-205,106 L-193,92 L-174,73 L-163,64 L-146,51 L-129,40 L-105,27 L-86,19 L-59,10 L-33,4 L-12,1 Z M-80,146 L-80,428 L-66,420 L-45,407 L-19,391 L7,375 L33,359 L59,343 L85,327 L111,311 L137,295 L158,282 L157,279 L128,263 L104,249 L80,236 L59,224 L34,210 L13,198 L-12,184 L-35,171 L-58,158 L-79,146 Z " fill="#DB4040" transform="translate(522,253)"/>
</svg>
