<?xml version="1.0" encoding="utf-8"?>
<!-- Generator: Adobe Illustrator 24.2.3, SVG Export Plug-In . SVG Version: 6.00 Build 0)  -->
<svg version="1.1" id="Layer_1" xmlns="http://www.w3.org/2000/svg" xmlns:xlink="http://www.w3.org/1999/xlink" x="0px" y="0px"
	 viewBox="0 0 277.7 277.7" style="enable-background:new 0 0 277.7 277.7;" xml:space="preserve">
<style type="text/css">
	.st0{fill-rule:evenodd;clip-rule:evenodd;fill:#A238FF;}
</style>
<path class="st0" d="M232.9,42.4c2.6-14.9,6.3-24.3,10.5-24.3h0c7.8,0,14.1,32.5,14.1,72.6c0,40.1-6.3,72.6-14.1,72.6
	c-3.2,0-6.1-5.5-8.5-14.8c-3.8,33.8-11.5,57.1-20.6,57.1c-7,0-13.2-14-17.4-36c-2.9,41.9-10.1,71.7-18.5,71.7
	c-5.3,0-10.1-11.8-13.7-31c-4.3,39.6-14.2,67.4-25.8,67.4s-21.5-27.7-25.8-67.4c-3.5,19.2-8.4,31-13.7,31
	c-8.4,0-15.6-29.7-18.5-71.7c-4.2,22-10.4,36-17.4,36c-9,0-16.8-23.3-20.6-57.1c-2.4,9.3-5.3,14.8-8.5,14.8
	c-7.8,0-14.1-32.5-14.1-72.6c0-40.1,6.3-72.6,14.1-72.6c4.2,0,7.9,9.4,10.5,24.3C49,16.7,55.7,0,63.4,0C72.4,0,80.3,23.6,84,57.9
	C87.6,32.9,93.2,17,99.3,17c8.7,0,16,31.3,18.8,74.9c5.1-22.4,12.6-36.4,20.8-36.4c8.2,0,15.6,14,20.8,36.4
	c2.7-43.6,10.1-74.9,18.8-74.9c6.2,0,11.7,15.9,15.3,40.8C197.4,23.6,205.3,0,214.3,0C221.9,0,228.7,16.7,232.9,42.4z M0,83.5
	c0-17.9,3.6-32.5,8-32.5s8,14.5,8,32.5c0,17.9-3.6,32.5-8,32.5S0,101.5,0,83.5z M261.7,83.5c0-17.9,3.6-32.5,8-32.5
	c4.4,0,8,14.5,8,32.5c0,17.9-3.6,32.5-8,32.5C265.2,116,261.7,101.5,261.7,83.5z"/>
</svg>
